# xmcd
#
# Track frame offsets: 
#        150
#        18969
#        36689
#        54387
#        80550
#        96229
#        117389
#        137775
#        156613
#        169133
#        189593
#
# Disc length: 2730 seconds
#
# Revision: 2
# Processed by: cddbd v1.5.2PL0 Copyright (c) Steve Scherf et al.
# Submitted via: ExactAudioCopy v0.99pb4
#
DISCID=9c0aa80b
DTITLE=Eugene Hideaway Bridges - Man Without A Home
DYEAR=1900
DGENRE=Blues
TTITLE0=I Used To Sing Love Songs
TTITLE1=You Gonna' Miss Me
TTITLE2=Bluesman
TTITLE3=Man Without A Country, Man Without A Home
TTITLE4=Movin' And A Groovin'
TTITLE5=Pay The Rent
TTITLE6=I'm Falling In Love
TTITLE7=Won't Be Your Fool
TTITLE8=Hideaway Slim
TTITLE9=Always
TTITLE10=I Found It
EXTD=
EXTT0=
EXTT1=
EXTT2=
EXTT3=
EXTT4=
EXTT5=
EXTT6=
EXTT7=
EXTT8=
EXTT9=
EXTT10=
PLAYORDER=
